<?xml version="1.0" encoding="UTF-8"?>
<!DOCTYPE svg PUBLIC "-//W3C//DTD SVG 1.1//EN" "http://www.w3.org/Graphics/SVG/1.1/DTD/svg11.dtd">
<!-- Creator: CorelDRAW -->
<svg xmlns="http://www.w3.org/2000/svg" xml:space="preserve" width="1284px" height="458px" version="1.1" style="shape-rendering:geometricPrecision; text-rendering:geometricPrecision; image-rendering:optimizeQuality; fill-rule:evenodd; clip-rule:evenodd"
viewBox="0 0 79.3 28.32"
 xmlns:xlink="http://www.w3.org/1999/xlink"
 xmlns:xodm="http://www.corel.com/coreldraw/odm/2003">
 <defs>
  <style type="text/css">
   <![CDATA[
    .fil0 {fill:#CCAB67;fill-rule:nonzero}
    .fil4 {fill:url(#id0)}
    .fil2 {fill:url(#id1)}
    .fil3 {fill:url(#id2)}
    .fil1 {fill:url(#id3)}
   ]]>
  </style>
  <linearGradient id="id0" gradientUnits="userSpaceOnUse" x1="12.62" y1="3.88" x2="12.62" y2="16.83">
   <stop offset="0" style="stop-opacity:1; stop-color:#D7B56E"/>
   <stop offset="1" style="stop-opacity:1; stop-color:#A88D54"/>
  </linearGradient>
  <linearGradient id="id1" gradientUnits="userSpaceOnUse" x1="19.76" y1="20.97" x2="18.29" y2="15.19">
   <stop offset="0" style="stop-opacity:1; stop-color:#D7B56E"/>
   <stop offset="1" style="stop-opacity:1; stop-color:#B89A5C"/>
  </linearGradient>
  <linearGradient id="id2" gradientUnits="userSpaceOnUse" xlink:href="#id1" x1="6.78" y1="21.99" x2="10.06" y2="17.03">
  </linearGradient>
  <radialGradient id="id3" gradientUnits="userSpaceOnUse" gradientTransform="matrix(-1.33134E+000 0.5093 -5.1069E-001 -1.335E+000 39 39)" cx="12.61" cy="19.27" r="9.57" fx="12.61" fy="19.27">
   <stop offset="0" style="stop-opacity:1; stop-color:#EBCC8B"/>
   <stop offset="1" style="stop-opacity:1; stop-color:#D7B56E"/>
  </radialGradient>
 </defs>
 <g id="Слой_x0020_1">
  <metadata id="CorelCorpID_0Corel-Layer"/>
  <g id="_105553278920640">
   <g>
    <path class="fil0" d="M31.07 10.11l0 -3.77 0.38 0 1.5 3.25 1.51 -3.25 0.38 0 0 3.77 -0.4 0 0 -2.87 -1.32 2.87 -0.33 0 -1.33 -2.87 0 2.87 -0.39 0zm5.83 0.1c-0.29,0 -0.53,-0.05 -0.72,-0.15 -0.19,-0.1 -0.33,-0.24 -0.43,-0.41 -0.1,-0.16 -0.14,-0.35 -0.14,-0.54 0,-0.22 0.04,-0.4 0.13,-0.54 0.09,-0.15 0.21,-0.26 0.36,-0.35 0.15,-0.09 0.32,-0.15 0.5,-0.2 0.2,-0.05 0.43,-0.09 0.67,-0.12 0.24,-0.03 0.46,-0.06 0.68,-0.09 0.22,-0.02 0.4,-0.05 0.53,-0.06l-0.14 0.08c0.01,-0.4 -0.07,-0.71 -0.23,-0.91 -0.16,-0.19 -0.45,-0.29 -0.85,-0.29 -0.29,0 -0.52,0.06 -0.71,0.19 -0.18,0.13 -0.31,0.33 -0.39,0.6l-0.41 -0.12c0.09,-0.34 0.26,-0.6 0.52,-0.79 0.26,-0.18 0.59,-0.27 1,-0.27 0.35,0 0.64,0.07 0.87,0.2 0.24,0.14 0.4,0.33 0.5,0.57 0.04,0.1 0.06,0.22 0.08,0.35 0.01,0.13 0.02,0.27 0.02,0.4l0 2.35 -0.37 0 0 -0.99 0.14 0.03c-0.12,0.34 -0.31,0.6 -0.6,0.79 -0.28,0.18 -0.62,0.27 -1.01,0.27zm0.02 -0.37c0.26,0 0.48,-0.04 0.68,-0.13 0.19,-0.1 0.35,-0.22 0.47,-0.39 0.12,-0.17 0.19,-0.36 0.23,-0.59 0.02,-0.12 0.03,-0.26 0.03,-0.41 0.01,-0.14 0.01,-0.25 0.01,-0.32l0.17 0.11c-0.15,0.02 -0.33,0.04 -0.54,0.06 -0.21,0.02 -0.43,0.05 -0.64,0.08 -0.22,0.03 -0.42,0.07 -0.6,0.11 -0.11,0.03 -0.22,0.08 -0.33,0.13 -0.11,0.06 -0.2,0.14 -0.27,0.24 -0.07,0.1 -0.11,0.23 -0.11,0.38 0,0.11 0.03,0.23 0.08,0.34 0.06,0.11 0.16,0.21 0.29,0.28 0.13,0.08 0.31,0.11 0.53,0.11zm4.26 0.37c-0.38,0 -0.69,-0.08 -0.95,-0.25 -0.26,-0.17 -0.45,-0.4 -0.59,-0.7 -0.13,-0.3 -0.2,-0.64 -0.21,-1.03 0.01,-0.4 0.08,-0.75 0.22,-1.05 0.13,-0.3 0.33,-0.53 0.59,-0.69 0.25,-0.17 0.57,-0.25 0.94,-0.25 0.37,0 0.69,0.09 0.97,0.26 0.28,0.18 0.47,0.42 0.58,0.73l-0.4 0.14c-0.09,-0.24 -0.24,-0.42 -0.44,-0.55 -0.21,-0.13 -0.44,-0.19 -0.71,-0.19 -0.3,0 -0.54,0.07 -0.73,0.2 -0.2,0.14 -0.34,0.33 -0.44,0.57 -0.09,0.24 -0.14,0.51 -0.15,0.83 0.01,0.48 0.12,0.86 0.34,1.16 0.22,0.29 0.55,0.43 0.98,0.43 0.27,0 0.5,-0.06 0.7,-0.18 0.19,-0.12 0.34,-0.3 0.45,-0.54l0.4 0.14c-0.15,0.32 -0.36,0.56 -0.62,0.72 -0.26,0.17 -0.57,0.25 -0.93,0.25zm3.21 -0.1l0 -3.38 -1.37 0 0 -0.39 3.13 0 0 0.39 -1.36 0 0 3.38 -0.4 0zm3.97 0.1c-0.36,0 -0.67,-0.08 -0.93,-0.24 -0.26,-0.16 -0.47,-0.39 -0.61,-0.69 -0.15,-0.29 -0.22,-0.64 -0.22,-1.05 0,-0.41 0.07,-0.76 0.22,-1.06 0.14,-0.3 0.34,-0.53 0.6,-0.69 0.27,-0.16 0.58,-0.24 0.94,-0.24 0.36,0 0.67,0.08 0.93,0.25 0.26,0.16 0.46,0.4 0.6,0.72 0.13,0.31 0.2,0.69 0.19,1.13l-0.42 0 0 -0.14c-0.01,-0.51 -0.13,-0.91 -0.35,-1.18 -0.22,-0.27 -0.54,-0.4 -0.95,-0.4 -0.42,0 -0.75,0.14 -0.98,0.42 -0.23,0.28 -0.35,0.68 -0.35,1.19 0,0.5 0.12,0.9 0.35,1.18 0.23,0.27 0.56,0.41 0.98,0.41 0.29,0 0.54,-0.07 0.76,-0.2 0.22,-0.14 0.39,-0.33 0.52,-0.58l0.36 0.16c-0.15,0.32 -0.37,0.57 -0.66,0.75 -0.28,0.18 -0.61,0.26 -0.98,0.26zm-1.48 -1.87l0 -0.36 2.97 0 0 0.36 -2.97 0zm5.62 1.87c-0.34,0 -0.63,-0.08 -0.86,-0.26 -0.24,-0.18 -0.42,-0.42 -0.54,-0.72 -0.12,-0.3 -0.19,-0.63 -0.19,-1.01 0,-0.38 0.07,-0.72 0.19,-1.02 0.12,-0.3 0.3,-0.53 0.55,-0.7 0.24,-0.17 0.53,-0.26 0.89,-0.26 0.34,0 0.63,0.09 0.87,0.26 0.24,0.18 0.43,0.41 0.55,0.71 0.13,0.3 0.19,0.64 0.19,1.01 0,0.38 -0.06,0.71 -0.19,1.02 -0.13,0.3 -0.32,0.53 -0.56,0.71 -0.25,0.18 -0.55,0.26 -0.9,0.26zm-1.65 1.57l0 -5.44 0.36 0 0 2.9 0.04 0 0 2.54 -0.4 0zm1.62 -1.95c0.28,0 0.51,-0.07 0.7,-0.21 0.18,-0.14 0.32,-0.34 0.41,-0.58 0.1,-0.24 0.14,-0.52 0.14,-0.82 0,-0.3 -0.04,-0.57 -0.13,-0.82 -0.09,-0.24 -0.23,-0.43 -0.42,-0.57 -0.18,-0.14 -0.42,-0.21 -0.7,-0.21 -0.28,0 -0.51,0.07 -0.7,0.21 -0.18,0.13 -0.32,0.32 -0.42,0.56 -0.09,0.25 -0.14,0.52 -0.14,0.83 0,0.31 0.05,0.58 0.14,0.82 0.09,0.25 0.23,0.44 0.42,0.58 0.19,0.14 0.42,0.21 0.7,0.21zm3.99 0.38c-0.38,0 -0.7,-0.08 -0.95,-0.25 -0.26,-0.17 -0.46,-0.4 -0.59,-0.7 -0.13,-0.3 -0.2,-0.64 -0.21,-1.03 0.01,-0.4 0.08,-0.75 0.21,-1.05 0.14,-0.3 0.34,-0.53 0.59,-0.69 0.26,-0.17 0.58,-0.25 0.95,-0.25 0.37,0 0.69,0.09 0.97,0.26 0.27,0.18 0.47,0.42 0.57,0.73l-0.39 0.14c-0.09,-0.24 -0.24,-0.42 -0.45,-0.55 -0.2,-0.13 -0.44,-0.19 -0.7,-0.19 -0.3,0 -0.54,0.07 -0.74,0.2 -0.19,0.14 -0.33,0.33 -0.43,0.57 -0.1,0.24 -0.15,0.51 -0.15,0.83 0.01,0.48 0.12,0.86 0.34,1.16 0.22,0.29 0.55,0.43 0.98,0.43 0.27,0 0.5,-0.06 0.69,-0.18 0.2,-0.12 0.35,-0.3 0.46,-0.54l0.39 0.14c-0.14,0.32 -0.35,0.56 -0.61,0.72 -0.26,0.17 -0.57,0.25 -0.93,0.25zm2.27 -0.1l0 -3.77 0.4 0 0 1.82 1.79 -1.82 0.56 0 -1.87 1.89 2.13 1.88 -0.62 0 -1.99 -1.81 0 1.81 -0.4 0zm4.45 0.1c-0.29,0 -0.53,-0.05 -0.72,-0.15 -0.2,-0.1 -0.34,-0.24 -0.44,-0.41 -0.09,-0.16 -0.14,-0.35 -0.14,-0.54 0,-0.22 0.05,-0.4 0.14,-0.54 0.09,-0.15 0.21,-0.26 0.36,-0.35 0.15,-0.09 0.31,-0.15 0.49,-0.2 0.21,-0.05 0.43,-0.09 0.67,-0.12 0.24,-0.03 0.47,-0.06 0.69,-0.09 0.21,-0.02 0.39,-0.05 0.53,-0.06l-0.15 0.08c0.01,-0.4 -0.06,-0.71 -0.23,-0.91 -0.16,-0.19 -0.44,-0.29 -0.85,-0.29 -0.28,0 -0.52,0.06 -0.7,0.19 -0.19,0.13 -0.32,0.33 -0.39,0.6l-0.42 -0.12c0.09,-0.34 0.26,-0.6 0.52,-0.79 0.26,-0.18 0.6,-0.27 1.01,-0.27 0.34,0 0.63,0.07 0.87,0.2 0.24,0.14 0.4,0.33 0.49,0.57 0.04,0.1 0.07,0.22 0.08,0.35 0.02,0.13 0.02,0.27 0.02,0.4l0 2.35 -0.36 0 0 -0.99 0.13 0.03c-0.11,0.34 -0.31,0.6 -0.59,0.79 -0.29,0.18 -0.62,0.27 -1.01,0.27zm0.02 -0.37c0.26,0 0.48,-0.04 0.67,-0.13 0.2,-0.1 0.35,-0.22 0.47,-0.39 0.12,-0.17 0.2,-0.36 0.23,-0.59 0.02,-0.12 0.04,-0.26 0.04,-0.41 0,-0.14 0,-0.25 0,-0.32l0.18 0.11c-0.15,0.02 -0.33,0.04 -0.55,0.06 -0.21,0.02 -0.42,0.05 -0.64,0.08 -0.22,0.03 -0.42,0.07 -0.59,0.11 -0.11,0.03 -0.22,0.08 -0.33,0.13 -0.11,0.06 -0.2,0.14 -0.28,0.24 -0.07,0.1 -0.11,0.23 -0.11,0.38 0,0.11 0.03,0.23 0.09,0.34 0.06,0.11 0.15,0.21 0.28,0.28 0.14,0.08 0.31,0.11 0.54,0.11zm5.12 0.27l0 -1.47 -0.95 0c-0.11,0 -0.21,-0.01 -0.31,-0.02 -0.11,-0.01 -0.2,-0.02 -0.29,-0.04 -0.25,-0.05 -0.47,-0.16 -0.66,-0.33 -0.18,-0.18 -0.27,-0.43 -0.27,-0.74 0,-0.31 0.09,-0.56 0.25,-0.74 0.17,-0.19 0.37,-0.31 0.6,-0.37 0.11,-0.03 0.22,-0.04 0.33,-0.05 0.11,0 0.2,-0.01 0.29,-0.01l1.41 0 0 3.77 -0.4 0zm-2.61 0l1.1 -1.63 0.46 0 -1.11 1.63 -0.45 0zm1.65 -1.84l0.96 0 0 -1.56 -0.96 0c-0.06,0 -0.15,0 -0.26,0.01 -0.11,0 -0.21,0.02 -0.31,0.05 -0.08,0.02 -0.16,0.06 -0.24,0.12 -0.08,0.06 -0.15,0.14 -0.21,0.24 -0.05,0.1 -0.08,0.22 -0.08,0.37 0,0.2 0.06,0.36 0.17,0.48 0.11,0.12 0.24,0.2 0.41,0.24 0.1,0.03 0.19,0.04 0.28,0.04 0.1,0.01 0.17,0.01 0.24,0.01zm-36.29 10.11l0 -3.77 2.9 0 0 3.77 -0.4 0 0 -3.37 -2.1 0 0 3.37 -0.4 0zm5.43 0.1c-0.36,0 -0.67,-0.08 -0.94,-0.24 -0.26,-0.16 -0.46,-0.39 -0.61,-0.69 -0.14,-0.29 -0.21,-0.64 -0.21,-1.05 0,-0.41 0.07,-0.76 0.21,-1.06 0.14,-0.3 0.35,-0.53 0.61,-0.69 0.26,-0.16 0.57,-0.24 0.93,-0.24 0.37,0 0.68,0.08 0.94,0.25 0.26,0.16 0.45,0.41 0.59,0.72 0.14,0.31 0.2,0.69 0.19,1.13l-0.42 0 0 -0.14c-0.01,-0.51 -0.12,-0.91 -0.34,-1.18 -0.23,-0.27 -0.54,-0.4 -0.95,-0.4 -0.43,0 -0.76,0.14 -0.99,0.42 -0.23,0.28 -0.34,0.68 -0.34,1.19 0,0.5 0.11,0.9 0.34,1.18 0.23,0.27 0.56,0.41 0.98,0.41 0.29,0 0.55,-0.06 0.76,-0.2 0.22,-0.14 0.39,-0.33 0.52,-0.58l0.36 0.16c-0.15,0.32 -0.37,0.57 -0.65,0.75 -0.29,0.18 -0.62,0.26 -0.98,0.26zm-1.49 -1.87l0 -0.36 2.98 0 0 0.36 -2.98 0zm5.62 1.87c-0.34,0 -0.63,-0.08 -0.86,-0.26 -0.23,-0.18 -0.41,-0.42 -0.54,-0.72 -0.12,-0.29 -0.18,-0.63 -0.18,-1.01 0,-0.38 0.06,-0.72 0.18,-1.02 0.13,-0.3 0.31,-0.53 0.55,-0.7 0.24,-0.17 0.54,-0.26 0.89,-0.26 0.34,0 0.63,0.09 0.87,0.26 0.25,0.18 0.43,0.41 0.56,0.71 0.12,0.3 0.19,0.64 0.19,1.01 0,0.38 -0.07,0.72 -0.2,1.02 -0.12,0.3 -0.31,0.54 -0.56,0.71 -0.24,0.18 -0.54,0.26 -0.9,0.26zm-1.65 1.57l0 -5.44 0.37 0 0 2.91 0.03 0 0 2.53 -0.4 0zm1.63 -1.95c0.27,0 0.5,-0.07 0.69,-0.21 0.18,-0.14 0.32,-0.34 0.42,-0.58 0.09,-0.24 0.14,-0.52 0.14,-0.82 0,-0.3 -0.05,-0.57 -0.14,-0.81 -0.09,-0.25 -0.23,-0.44 -0.41,-0.58 -0.19,-0.14 -0.42,-0.21 -0.71,-0.21 -0.28,0 -0.51,0.07 -0.69,0.21 -0.19,0.13 -0.33,0.32 -0.42,0.56 -0.1,0.25 -0.14,0.52 -0.14,0.83 0,0.31 0.04,0.58 0.14,0.82 0.09,0.25 0.23,0.44 0.41,0.58 0.19,0.14 0.43,0.21 0.71,0.21zm4 0.38c-0.36,0 -0.68,-0.08 -0.94,-0.24 -0.26,-0.16 -0.46,-0.39 -0.61,-0.69 -0.14,-0.29 -0.21,-0.64 -0.21,-1.05 0,-0.41 0.07,-0.76 0.21,-1.06 0.14,-0.3 0.35,-0.53 0.61,-0.69 0.26,-0.16 0.57,-0.24 0.93,-0.24 0.36,0 0.68,0.08 0.94,0.25 0.25,0.16 0.45,0.41 0.59,0.72 0.13,0.31 0.2,0.69 0.19,1.13l-0.42 0 0 -0.14c-0.01,-0.51 -0.12,-0.91 -0.35,-1.18 -0.22,-0.27 -0.53,-0.4 -0.94,-0.4 -0.43,0 -0.76,0.14 -0.99,0.42 -0.23,0.28 -0.35,0.68 -0.35,1.19 0,0.5 0.12,0.9 0.35,1.18 0.23,0.27 0.56,0.41 0.98,0.41 0.29,0 0.54,-0.06 0.76,-0.2 0.22,-0.14 0.39,-0.33 0.52,-0.58l0.36 0.16c-0.15,0.32 -0.37,0.57 -0.65,0.75 -0.29,0.18 -0.62,0.26 -0.98,0.26zm-1.49 -1.87l0 -0.36 2.97 0 0 0.36 -2.97 0zm3.97 1.77l0 -3.77 2.55 0 0 0.4 -2.15 0 0 3.37 -0.4 0zm4.68 0.1c-0.37,0 -0.69,-0.08 -0.95,-0.25 -0.26,-0.17 -0.46,-0.4 -0.59,-0.7 -0.14,-0.3 -0.21,-0.65 -0.21,-1.04 0,-0.39 0.07,-0.74 0.21,-1.04 0.14,-0.3 0.34,-0.53 0.6,-0.69 0.26,-0.17 0.58,-0.25 0.94,-0.25 0.38,0 0.7,0.08 0.96,0.25 0.26,0.17 0.46,0.4 0.59,0.7 0.14,0.3 0.21,0.64 0.21,1.03 0,0.4 -0.07,0.75 -0.21,1.04 -0.14,0.3 -0.34,0.54 -0.6,0.7 -0.26,0.17 -0.58,0.25 -0.95,0.25zm0 -0.39c0.45,0 0.78,-0.14 1,-0.44 0.22,-0.3 0.33,-0.69 0.33,-1.16 0,-0.48 -0.11,-0.87 -0.33,-1.16 -0.22,-0.29 -0.56,-0.43 -1,-0.43 -0.3,0 -0.54,0.07 -0.74,0.2 -0.19,0.14 -0.34,0.33 -0.44,0.57 -0.09,0.23 -0.14,0.51 -0.14,0.82 0,0.48 0.11,0.87 0.34,1.16 0.22,0.3 0.55,0.44 0.98,0.44zm2.52 0.29l0 -3.77 1.5 0c0.06,0 0.15,0.01 0.27,0.02 0.11,0.01 0.22,0.02 0.33,0.05 0.22,0.06 0.39,0.17 0.52,0.35 0.12,0.18 0.18,0.38 0.18,0.62 0,0.12 -0.01,0.24 -0.05,0.34 -0.04,0.11 -0.09,0.2 -0.16,0.28 -0.04,0.04 -0.07,0.08 -0.11,0.11 -0.05,0.03 -0.09,0.06 -0.13,0.08 0.07,0.01 0.15,0.05 0.24,0.1 0.13,0.09 0.23,0.2 0.3,0.34 0.06,0.13 0.1,0.29 0.1,0.47 0,0.26 -0.07,0.47 -0.19,0.63 -0.12,0.16 -0.28,0.27 -0.48,0.32 -0.1,0.03 -0.2,0.04 -0.31,0.05 -0.1,0.01 -0.2,0.01 -0.29,0.01l-1.72 0zm0.41 -0.36l1.3 0c0.05,0 0.11,-0.01 0.19,-0.02 0.08,0 0.15,-0.01 0.21,-0.03 0.16,-0.04 0.27,-0.11 0.35,-0.23 0.07,-0.11 0.1,-0.24 0.1,-0.38 0,-0.18 -0.05,-0.33 -0.16,-0.45 -0.11,-0.12 -0.26,-0.19 -0.45,-0.21 -0.05,-0.01 -0.11,-0.02 -0.17,-0.02 -0.06,0 -0.11,0 -0.16,0l-1.21 0 0 1.34zm0 -1.71l1.17 0c0.05,0 0.12,0 0.2,-0.01 0.08,0 0.14,-0.02 0.2,-0.04 0.14,-0.05 0.24,-0.13 0.3,-0.24 0.07,-0.11 0.1,-0.23 0.1,-0.36 0,-0.15 -0.04,-0.28 -0.11,-0.39 -0.06,-0.1 -0.17,-0.18 -0.3,-0.23 -0.09,-0.03 -0.19,-0.05 -0.29,-0.05 -0.1,-0.01 -0.16,-0.01 -0.19,-0.01l-1.08 0 0 1.33zm4.82 2.17c-0.38,0 -0.69,-0.08 -0.95,-0.25 -0.26,-0.17 -0.46,-0.4 -0.6,-0.7 -0.14,-0.3 -0.21,-0.65 -0.21,-1.04 0,-0.39 0.07,-0.74 0.21,-1.04 0.14,-0.3 0.34,-0.53 0.61,-0.69 0.26,-0.17 0.57,-0.25 0.94,-0.25 0.37,0 0.69,0.08 0.95,0.25 0.26,0.17 0.46,0.4 0.6,0.7 0.13,0.3 0.2,0.64 0.2,1.03 0,0.4 -0.07,0.75 -0.2,1.04 -0.14,0.3 -0.34,0.54 -0.6,0.7 -0.27,0.17 -0.58,0.25 -0.95,0.25zm0 -0.39c0.44,0 0.77,-0.14 0.99,-0.44 0.22,-0.3 0.33,-0.69 0.33,-1.16 0,-0.48 -0.11,-0.87 -0.33,-1.16 -0.22,-0.29 -0.55,-0.43 -0.99,-0.43 -0.3,0 -0.55,0.07 -0.74,0.2 -0.2,0.14 -0.35,0.33 -0.44,0.57 -0.1,0.23 -0.15,0.51 -0.15,0.82 0,0.48 0.12,0.87 0.34,1.16 0.22,0.3 0.55,0.44 0.99,0.44zm4.17 0.39c-0.34,0 -0.63,-0.08 -0.86,-0.26 -0.24,-0.18 -0.42,-0.42 -0.54,-0.72 -0.12,-0.29 -0.19,-0.63 -0.19,-1.01 0,-0.38 0.07,-0.72 0.19,-1.02 0.12,-0.3 0.3,-0.53 0.55,-0.7 0.24,-0.17 0.53,-0.26 0.89,-0.26 0.34,0 0.63,0.09 0.87,0.26 0.24,0.18 0.43,0.41 0.55,0.71 0.13,0.3 0.19,0.64 0.19,1.01 0,0.38 -0.06,0.72 -0.19,1.02 -0.13,0.3 -0.32,0.54 -0.56,0.71 -0.25,0.18 -0.55,0.26 -0.9,0.26zm-1.65 1.57l0 -5.44 0.36 0 0 2.91 0.04 0 0 2.53 -0.4 0zm1.62 -1.95c0.28,0 0.51,-0.07 0.7,-0.21 0.18,-0.14 0.32,-0.34 0.41,-0.58 0.1,-0.24 0.14,-0.52 0.14,-0.82 0,-0.3 -0.04,-0.57 -0.13,-0.81 -0.09,-0.25 -0.23,-0.44 -0.42,-0.58 -0.18,-0.14 -0.42,-0.21 -0.7,-0.21 -0.28,0 -0.51,0.07 -0.7,0.21 -0.18,0.13 -0.32,0.32 -0.42,0.56 -0.09,0.25 -0.14,0.52 -0.14,0.83 0,0.31 0.05,0.58 0.14,0.82 0.09,0.25 0.23,0.44 0.42,0.58 0.19,0.14 0.42,0.21 0.7,0.21zm3.99 0.38c-0.37,0 -0.69,-0.08 -0.95,-0.25 -0.26,-0.17 -0.46,-0.4 -0.59,-0.7 -0.14,-0.3 -0.21,-0.65 -0.21,-1.04 0,-0.39 0.07,-0.74 0.21,-1.04 0.14,-0.3 0.34,-0.53 0.6,-0.69 0.26,-0.17 0.58,-0.25 0.94,-0.25 0.38,0 0.7,0.08 0.96,0.25 0.26,0.17 0.46,0.4 0.59,0.7 0.14,0.3 0.21,0.64 0.21,1.03 0,0.4 -0.07,0.75 -0.21,1.04 -0.13,0.3 -0.33,0.54 -0.6,0.7 -0.26,0.17 -0.58,0.25 -0.95,0.25zm0 -0.39c0.45,0 0.78,-0.14 1,-0.44 0.22,-0.3 0.33,-0.69 0.33,-1.16 0,-0.48 -0.11,-0.87 -0.33,-1.16 -0.22,-0.29 -0.55,-0.43 -1,-0.43 -0.3,0 -0.54,0.07 -0.74,0.2 -0.19,0.14 -0.34,0.33 -0.43,0.57 -0.1,0.23 -0.15,0.51 -0.15,0.82 0,0.48 0.11,0.87 0.34,1.16 0.22,0.3 0.55,0.44 0.98,0.44zm2.52 0.29l0 -3.77 1.5 0c0.06,0 0.15,0.01 0.27,0.02 0.11,0.01 0.22,0.02 0.33,0.05 0.22,0.06 0.39,0.17 0.52,0.35 0.12,0.18 0.19,0.38 0.19,0.62 0,0.12 -0.02,0.24 -0.06,0.34 -0.04,0.11 -0.09,0.2 -0.16,0.28 -0.03,0.04 -0.07,0.08 -0.11,0.11 -0.04,0.03 -0.09,0.06 -0.13,0.08 0.07,0.01 0.15,0.05 0.24,0.1 0.13,0.09 0.23,0.2 0.3,0.34 0.07,0.13 0.1,0.29 0.1,0.47 0,0.26 -0.06,0.47 -0.19,0.63 -0.12,0.16 -0.28,0.27 -0.48,0.32 -0.1,0.03 -0.2,0.04 -0.3,0.05 -0.11,0.01 -0.21,0.01 -0.3,0.01l-1.72 0zm0.41 -0.36l1.3 0c0.05,0 0.11,-0.01 0.19,-0.02 0.08,0 0.15,-0.01 0.21,-0.03 0.16,-0.04 0.28,-0.11 0.35,-0.23 0.07,-0.11 0.1,-0.24 0.1,-0.38 0,-0.18 -0.05,-0.33 -0.16,-0.45 -0.11,-0.12 -0.26,-0.19 -0.45,-0.21 -0.05,-0.01 -0.11,-0.02 -0.17,-0.02 -0.06,0 -0.11,0 -0.16,0l-1.21 0 0 1.34zm0 -1.71l1.17 0c0.06,0 0.12,0 0.2,-0.01 0.08,0 0.15,-0.02 0.2,-0.04 0.14,-0.05 0.24,-0.13 0.3,-0.24 0.07,-0.11 0.1,-0.23 0.1,-0.36 0,-0.15 -0.03,-0.28 -0.1,-0.39 -0.07,-0.1 -0.17,-0.18 -0.31,-0.23 -0.09,-0.03 -0.19,-0.05 -0.29,-0.05 -0.1,-0.01 -0.16,-0.01 -0.19,-0.01l-1.08 0 0 1.33zm-39.51 10.34l0 -5.02 0.37 0 2.06 4.44 2.04 -4.44 0.38 0 0 5.01 -0.39 0 0 -4.09 -1.87 4.1 -0.33 0 -1.87 -4.1 0 4.1 -0.39 0zm8.73 -3.77l0 3.77 -0.4 0 0 -3.09 -2.15 3.09 -0.35 0 0 -3.77 0.39 0 0 3.08 2.16 -3.08 0.35 0zm0.63 3.77l0 -0.36c0.14,0.02 0.24,0.01 0.32,-0.03 0.07,-0.04 0.12,-0.1 0.15,-0.2 0.04,-0.09 0.07,-0.21 0.09,-0.34 0.04,-0.23 0.07,-0.49 0.1,-0.76 0.03,-0.28 0.06,-0.59 0.09,-0.93 0.02,-0.34 0.05,-0.72 0.07,-1.15l2.49 0 0 3.77 -0.4 0 0 -3.37 -1.7 0c-0.02,0.27 -0.04,0.55 -0.06,0.81 -0.02,0.26 -0.04,0.51 -0.07,0.75 -0.02,0.23 -0.05,0.45 -0.08,0.64 -0.02,0.2 -0.05,0.36 -0.08,0.51 -0.04,0.18 -0.08,0.33 -0.14,0.44 -0.06,0.11 -0.15,0.19 -0.27,0.23 -0.12,0.03 -0.29,0.03 -0.51,-0.01zm4.29 0l0 -3.77 0.41 0 0 1.48 0.73 0c0.11,0 0.21,0 0.31,0 0.1,0.01 0.18,0.02 0.27,0.03 0.17,0.04 0.33,0.1 0.48,0.18 0.14,0.08 0.25,0.2 0.34,0.35 0.08,0.15 0.12,0.35 0.12,0.58 0,0.32 -0.08,0.57 -0.24,0.75 -0.17,0.18 -0.37,0.3 -0.6,0.35 -0.1,0.02 -0.2,0.04 -0.31,0.04 -0.1,0.01 -0.21,0.01 -0.31,0.01l-1.2 0zm0.41 -0.37l0.73 0c0.09,0 0.19,0 0.3,0 0.11,-0.01 0.2,-0.02 0.28,-0.04 0.13,-0.04 0.25,-0.11 0.36,-0.22 0.11,-0.11 0.16,-0.28 0.16,-0.52 0,-0.23 -0.05,-0.4 -0.15,-0.51 -0.11,-0.12 -0.25,-0.19 -0.42,-0.23 -0.08,-0.01 -0.17,-0.02 -0.26,-0.03 -0.09,0 -0.18,-0.01 -0.27,-0.01l-0.73 0 0 1.56zm2.72 0.37l0 -3.77 0.41 0 0 3.77 -0.41 0zm2.78 0l0 -5.02 0.37 0 2.06 4.44 2.03 -4.44 0.39 0 0 5.01 -0.39 0 0 -4.09 -1.87 4.1 -0.33 0 -1.87 -4.1 0 4.1 -0.39 0zm7.37 0.11c-0.38,0 -0.69,-0.09 -0.95,-0.26 -0.26,-0.17 -0.46,-0.4 -0.6,-0.7 -0.14,-0.3 -0.2,-0.65 -0.2,-1.04 0,-0.39 0.07,-0.74 0.2,-1.04 0.14,-0.3 0.35,-0.53 0.61,-0.69 0.26,-0.17 0.57,-0.25 0.94,-0.25 0.37,0 0.69,0.08 0.95,0.25 0.26,0.17 0.46,0.4 0.6,0.7 0.14,0.3 0.2,0.64 0.2,1.03 0,0.4 -0.07,0.75 -0.2,1.04 -0.14,0.3 -0.34,0.54 -0.6,0.7 -0.27,0.17 -0.58,0.26 -0.95,0.26zm0 -0.4c0.44,0 0.78,-0.14 1,-0.44 0.21,-0.3 0.32,-0.69 0.32,-1.16 0,-0.48 -0.11,-0.87 -0.33,-1.16 -0.22,-0.29 -0.55,-0.43 -0.99,-0.43 -0.3,0 -0.55,0.07 -0.74,0.2 -0.2,0.14 -0.34,0.33 -0.44,0.57 -0.1,0.23 -0.15,0.51 -0.15,0.82 0,0.48 0.12,0.87 0.34,1.17 0.23,0.29 0.55,0.43 0.99,0.43zm4.17 0.4c-0.34,0 -0.63,-0.09 -0.86,-0.27 -0.24,-0.18 -0.42,-0.41 -0.54,-0.71 -0.12,-0.3 -0.18,-0.64 -0.18,-1.02 0,-0.38 0.06,-0.72 0.18,-1.02 0.12,-0.29 0.31,-0.53 0.55,-0.7 0.24,-0.17 0.54,-0.26 0.89,-0.26 0.34,0 0.63,0.09 0.87,0.26 0.24,0.18 0.43,0.41 0.55,0.71 0.13,0.3 0.19,0.64 0.19,1.01 0,0.38 -0.06,0.72 -0.19,1.02 -0.13,0.3 -0.31,0.54 -0.56,0.71 -0.25,0.18 -0.55,0.27 -0.9,0.27zm-1.65 1.56l0 -5.44 0.36 0 0 2.91 0.04 0 0 2.53 -0.4 0zm1.62 -1.95c0.28,0 0.51,-0.07 0.7,-0.21 0.18,-0.14 0.32,-0.34 0.41,-0.58 0.1,-0.24 0.15,-0.51 0.15,-0.82 0,-0.3 -0.05,-0.57 -0.14,-0.81 -0.09,-0.24 -0.23,-0.44 -0.42,-0.58 -0.18,-0.14 -0.42,-0.21 -0.7,-0.21 -0.28,0 -0.51,0.07 -0.7,0.21 -0.18,0.13 -0.32,0.32 -0.42,0.56 -0.09,0.25 -0.14,0.52 -0.14,0.83 0,0.31 0.05,0.58 0.14,0.82 0.1,0.25 0.23,0.44 0.42,0.58 0.19,0.14 0.42,0.21 0.7,0.21zm4 0.39c-0.38,0 -0.7,-0.09 -0.96,-0.26 -0.26,-0.17 -0.46,-0.4 -0.59,-0.7 -0.14,-0.3 -0.21,-0.65 -0.21,-1.04 0,-0.39 0.07,-0.74 0.21,-1.04 0.14,-0.3 0.34,-0.53 0.6,-0.69 0.26,-0.17 0.58,-0.25 0.95,-0.25 0.37,0 0.69,0.08 0.95,0.25 0.26,0.17 0.46,0.4 0.6,0.7 0.13,0.3 0.2,0.64 0.2,1.03 0,0.4 -0.07,0.75 -0.21,1.04 -0.13,0.3 -0.33,0.54 -0.6,0.7 -0.26,0.17 -0.57,0.26 -0.94,0.26zm0 -0.4c0.44,0 0.77,-0.14 0.99,-0.44 0.22,-0.3 0.33,-0.69 0.33,-1.16 0,-0.48 -0.11,-0.87 -0.33,-1.16 -0.22,-0.29 -0.55,-0.43 -0.99,-0.43 -0.3,0 -0.55,0.07 -0.75,0.2 -0.19,0.14 -0.34,0.33 -0.43,0.57 -0.1,0.23 -0.15,0.51 -0.15,0.82 0,0.48 0.11,0.87 0.34,1.17 0.22,0.29 0.55,0.43 0.99,0.43z"/>
    <path class="fil0" d="M68.65 26.65l0 -3.77 1.5 0c0.07,0 0.15,0.01 0.27,0.02 0.11,0.01 0.23,0.02 0.33,0.05 0.22,0.06 0.39,0.17 0.52,0.35 0.12,0.18 0.19,0.38 0.19,0.62 0,0.12 -0.02,0.24 -0.06,0.34 -0.04,0.11 -0.09,0.2 -0.16,0.28 -0.03,0.04 -0.07,0.08 -0.11,0.11 -0.04,0.03 -0.09,0.06 -0.12,0.08 0.06,0.01 0.14,0.05 0.23,0.1 0.14,0.09 0.24,0.2 0.3,0.34 0.07,0.13 0.1,0.29 0.1,0.47 0,0.26 -0.06,0.47 -0.19,0.63 -0.12,0.16 -0.28,0.27 -0.48,0.32 -0.09,0.03 -0.2,0.05 -0.3,0.05 -0.11,0.01 -0.21,0.01 -0.3,0.01l-1.72 0zm0.41 -0.36l1.3 0c0.05,0 0.12,-0.01 0.2,-0.01 0.07,-0.01 0.14,-0.02 0.21,-0.04 0.15,-0.03 0.27,-0.11 0.34,-0.23 0.07,-0.11 0.11,-0.24 0.11,-0.38 0,-0.18 -0.06,-0.33 -0.17,-0.45 -0.11,-0.12 -0.26,-0.19 -0.44,-0.21 -0.06,-0.01 -0.11,-0.02 -0.18,-0.02 -0.06,0 -0.11,0 -0.16,0l-1.21 0 0 1.34zm0 -1.7l1.17 0c0.06,0 0.12,-0.01 0.2,-0.02 0.08,0 0.15,-0.02 0.21,-0.04 0.13,-0.05 0.23,-0.12 0.3,-0.24 0.06,-0.11 0.09,-0.23 0.09,-0.36 0,-0.15 -0.03,-0.28 -0.1,-0.38 -0.07,-0.11 -0.17,-0.19 -0.31,-0.24 -0.09,-0.03 -0.18,-0.05 -0.29,-0.05 -0.1,-0.01 -0.16,-0.01 -0.19,-0.01l-1.08 0 0 1.34zm4.82 2.17c-0.37,0 -0.69,-0.09 -0.95,-0.26 -0.26,-0.17 -0.46,-0.4 -0.6,-0.7 -0.13,-0.3 -0.2,-0.65 -0.2,-1.04 0,-0.39 0.07,-0.74 0.21,-1.04 0.14,-0.3 0.34,-0.53 0.6,-0.69 0.26,-0.17 0.57,-0.25 0.94,-0.25 0.37,0 0.69,0.08 0.95,0.25 0.27,0.17 0.47,0.4 0.6,0.7 0.14,0.3 0.2,0.64 0.2,1.03 0,0.4 -0.06,0.75 -0.2,1.04 -0.14,0.3 -0.34,0.54 -0.6,0.7 -0.26,0.17 -0.58,0.26 -0.95,0.26zm0 -0.4c0.44,0 0.78,-0.14 1,-0.44 0.22,-0.3 0.33,-0.69 0.33,-1.16 0,-0.48 -0.11,-0.87 -0.34,-1.16 -0.22,-0.29 -0.55,-0.43 -0.99,-0.43 -0.3,0 -0.55,0.07 -0.74,0.2 -0.2,0.14 -0.34,0.33 -0.44,0.57 -0.1,0.23 -0.14,0.51 -0.14,0.82 0,0.48 0.11,0.87 0.33,1.17 0.23,0.29 0.56,0.43 0.99,0.43zm4.02 -3.93c-0.15,0 -0.3,-0.04 -0.42,-0.11 -0.13,-0.08 -0.23,-0.18 -0.31,-0.31 -0.08,-0.13 -0.11,-0.27 -0.11,-0.43l0.34 0c0,0.14 0.05,0.26 0.15,0.36 0.1,0.09 0.22,0.14 0.35,0.14 0.14,0 0.26,-0.05 0.36,-0.14 0.09,-0.1 0.14,-0.22 0.14,-0.36l0.35 0c0,0.16 -0.04,0.3 -0.11,0.43 -0.08,0.13 -0.18,0.23 -0.31,0.31 -0.13,0.07 -0.27,0.11 -0.43,0.11zm1.4 0.45l0 3.77 -0.39 0 0 -3.09 -2.16 3.09 -0.35 0 0 -3.77 0.39 0 0 3.08 2.16 -3.08 0.35 0z"/>
   </g>
   <g>
    <polygon class="fil1" points="0,6.17 0,26.6 2.79,26.6 2.79,10.16 12.22,23.63 12.61,24.18 13,23.63 13.74,22.57 13.74,22.57 14.32,21.75 22.43,10.16 22.43,26.6 25.22,26.6 25.22,6.17 25.22,1.3 22.43,5.29 12.61,19.32 2.79,5.29 0,1.3 "/>
    <polygon class="fil2" points="17.78,16.8 22.43,26.6 22.43,20.71 19.45,14.42 "/>
    <polygon class="fil3" points="2.79,26.6 7.44,16.8 5.78,14.42 2.79,20.71 "/>
    <polygon class="fil4" points="8.82,13.9 12.61,5.89 16.41,13.9 18.07,11.52 14.01,2.95 12.61,0 11.22,2.95 7.15,11.52 "/>
   </g>
  </g>
 </g>
</svg>
